<svg width="226" height="367" viewBox="0 0 226 367" fill="none" xmlns="http://www.w3.org/2000/svg">
<path d="M-0.171458 328.274C41.6037 325.556 82.7985 358.451 122.337 341.343C165.695 322.583 214.236 287.084 224.453 231.078C234.898 173.823 189.687 125.837 171.53 71.6875C158.552 32.9806 155.061 -10.3042 132.939 -41.8455C110.9 -73.2674 79.6909 -89.854 48.2777 -104.043C15.1164 -119.021 -18.7041 -130.14 -53.8153 -126.199C-94.5657 -121.626 -142.126 -119.226 -168.209 -79.7478C-194.285 -40.2788 -184.329 18.4377 -183.208 69.6465C-182.253 113.299 -169.883 152.678 -162.188 195.27C-152.167 250.736 -169.118 326.657 -131.142 357.833C-93.275 388.919 -45.3881 331.215 -0.171458 328.274Z" fill="#C8A4BC"/>
</svg>
