<svg width="173" height="423" viewBox="0 0 173 423" fill="none" xmlns="http://www.w3.org/2000/svg">
<path d="M261.398 372.826C288.265 353.545 324.055 340.512 332.905 306.416C341.659 272.693 316.17 236.229 306.19 200.261C297.329 168.329 292.914 136.756 277.553 106.926C258.435 69.8015 242.863 22.8627 206.531 6.72526C170.296 -9.3691 132.363 10.4719 101.232 28.6117C74.6351 44.1093 60.9621 73.8687 44.7336 101.004C30.5496 124.72 18.7112 148.878 12.4769 177.013C5.39396 208.978 -6.99937 242.576 6.13098 275.221C19.4048 308.223 54.7004 323.991 81.0438 347.484C110.917 374.124 134.545 417.293 171.221 422.446C207.863 427.595 232.944 393.245 261.398 372.826Z" fill="white"/>
</svg>
